<?xml version="1.0" standalone="no"?>
<!DOCTYPE svg PUBLIC "-//W3C//DTD SVG 20010904//EN"
 "http://www.w3.org/TR/2001/REC-SVG-20010904/DTD/svg10.dtd">
<svg version="1.0" xmlns="http://www.w3.org/2000/svg"
 width="442.000000pt" height="442.000000pt" viewBox="0 0 442.000000 442.000000"
 preserveAspectRatio="xMidYMid meet">
<metadata>
Created by potrace 1.11, written by Peter Selinger 2001-2013
</metadata>
<g transform="translate(0.000000,442.000000) scale(0.100000,-0.100000)"
fill="#000000" stroke="none">
<path d="M1980 4409 c-123 -15 -140 -18 -255 -44 -175 -39 -314 -89 -480 -170
-457 -223 -807 -574 -1026 -1030 -32 -66 -65 -140 -74 -165 -49 -139 -84 -261
-100 -348 -2 -13 -6 -31 -9 -40 -3 -9 -8 -39 -11 -67 -3 -27 -10 -79 -14 -115
-13 -98 -5 -441 13 -545 20 -119 25 -145 33 -175 3 -14 7 -27 8 -30 15 -64 60
-212 74 -245 5 -11 24 -56 43 -100 118 -283 318 -560 554 -769 126 -111 132
-116 248 -193 239 -159 502 -269 781 -328 140 -30 237 -38 425 -39 151 -1 277
6 355 19 144 25 324 72 455 120 165 60 427 210 580 331 124 99 294 271 383
389 4 5 21 28 38 50 105 136 245 408 304 590 84 261 109 422 110 705 0 151 -6
257 -20 335 -10 52 -24 129 -30 155 -10 49 -66 240 -81 277 -9 21 -21 52 -27
68 -6 17 -44 93 -82 170 -80 157 -165 287 -275 420 -29 35 -247 253 -276 275
-324 255 -626 396 -1019 476 -11 2 -41 6 -66 9 -25 3 -56 8 -70 11 -42 9 -421
12 -489 3z"/>
</g>
</svg>
